<?xml version="1.0" encoding="iso-8859-1"?>
<!-- Generator: Adobe Illustrator 16.0.0, SVG Export Plug-In . SVG Version: 6.00 Build 0)  -->
<!DOCTYPE svg PUBLIC "-//W3C//DTD SVG 1.1//EN" "http://www.w3.org/Graphics/SVG/1.1/DTD/svg11.dtd">
<svg enable-background="new 0 0 24 24" height="24px" id="Layer_1" version="1.1" viewBox="0 0 24 24" width="24px" xml:space="preserve" xmlns="http://www.w3.org/2000/svg" xmlns:xlink="http://www.w3.org/1999/xlink"><g><path d="M1,9h16c2.2,0,4-1.8,4-4s-1.8-4-4-4s-4,1.8-4,4c0,0.6,0.4,1,1,1s1-0.4,1-1c0-1.1,0.9-2,2-2s2,0.9,2,2s-0.9,2-2,2H1   C0.4,7,0,7.4,0,8V8C0,8.6,0.4,9,1,9z"/><path d="M11,13H1c-0.5,0-1,0.4-1,1V14c0,0.5,0.4,1,1,1h10c1.1,0,2,0.9,2,2s-0.9,2-2,2s-2-0.9-2-2c0-0.6-0.4-1-1-1s-1,0.4-1,1   c0,2.2,1.8,4,4,4s4-1.8,4-4S13.2,13,11,13z"/><path d="M20,10H1c-0.5,0-1,0.4-1,1V11c0,0.5,0.4,1,1,1h19c1.1,0,2,0.9,2,2s-0.9,2-2,2s-2-0.9-2-2c0-0.6-0.4-1-1-1s-1,0.4-1,1   c0,2.2,1.8,4,4,4s4-1.8,4-4S22.2,10,20,10z"/></g></svg>
